<?xml version="1.0" standalone="no"?>
<!DOCTYPE svg PUBLIC "-//W3C//DTD SVG 20010904//EN"
 "http://www.w3.org/TR/2001/REC-SVG-20010904/DTD/svg10.dtd">
<svg version="1.0" xmlns="http://www.w3.org/2000/svg"
 width="300.000000pt" height="300.000000pt" viewBox="0 0 300.000000 300.000000"
 preserveAspectRatio="xMidYMid meet">
    <g xmlns="http://www.w3.org/2000/svg" transform="translate(-10.000000,150.000000) scale(0.080000,-0.080000)" fill="#ffffff" stroke="none">
        <path d="m1685 316 c193 -348 353 -632 356 -630 3 1 144 287 314 633 l309 631 277 0 c243 0 278 -2 283 -16 13 -33 -11 -50 -93 -68 -99 -21 -155 -59 -191 -131 -24 -49 -25 -54 -23 -275 4 -438 24 -1156 34 -1204 5 -27 16 -64 25 -82 20 -41 92 -89 159 -105 95 -22 120 -34 123 -57 l3 -22 -450 0 c-247 0 -452 4 -455 9 -13 20 24 42 94 56 84 18 123 40 161 94 43 59 51 102 50 250 -2 342 -25 1351 -31 1351 -4 0 -131 -255 -283 -567 l-277 -566 96 -174 c53 -96 93 -180 90 -188 -9 -25 -34 -17 -80 25 -59 55 -140 90 -218 94 l-63 4 -362 653 c-199 359 -366 656 -371 661 -8 8 -22 -734 -22 -1182 0 -206 12 -289 49 -340 27 -39 116 -87 189 -104 63 -14 97 -37 89 -61 -6 -16 -727 -19 -727 -3 0 27 19 40 75 54 119 31 156 62 205 166 42 89 46 142 62 818 16 675 16 676 -6 717 -23 45 -50 60 -168 97 -102 32 -127 49 -115 80 6 14 35 16 274 16 l268 0 350 -634z"/>
</g>
</svg>
