<?xml version="1.0" standalone="no"?>
<!DOCTYPE svg PUBLIC "-//W3C//DTD SVG 20010904//EN"
 "http://www.w3.org/TR/2001/REC-SVG-20010904/DTD/svg10.dtd">
<svg version="1.0" xmlns="http://www.w3.org/2000/svg"
 width="500.000000pt" height="500.000000pt" viewBox="0 0 500.000000 500.000000"
 preserveAspectRatio="xMidYMid meet">
<metadata>
Created by potrace 1.13, written by Peter Selinger 2001-2015
</metadata>
<g transform="translate(50.000000,445.000000) scale(0.0800000,-0.0800000)"
fill="#ffffff" stroke="none">
<path d="M2930 4608 c-58 -11 -120 -26 -138 -34 -18 -8 -41 -14 -52 -14 -20 0
-37 -7 -195 -81 -291 -135 -547 -389 -690 -685 -69 -144 -106 -263 -134 -438
-10 -60 -37 -86 -91 -86 -41 0 -201 -34 -235 -50 -21 -10 -95 -37 -130 -47
-64 -20 -242 -130 -361 -224 -122 -97 -270 -275 -345 -417 -22 -42 -44 -82
-49 -87 -5 -6 -12 -24 -16 -40 -4 -17 -11 -35 -16 -42 -6 -7 -14 -27 -18 -45
-5 -18 -13 -46 -19 -63 -50 -145 -64 -242 -64 -450 0 -216 23 -370 71 -488 7
-16 12 -32 12 -36 0 -18 61 -150 111 -239 30 -54 128 -189 164 -227 11 -11 34
-36 50 -55 58 -66 240 -210 317 -251 135 -70 248 -120 308 -134 14 -3 48 -12
75 -20 217 -62 529 -62 750 1 28 7 66 18 85 23 84 23 220 83 305 136 116 73
138 88 203 144 87 75 172 164 222 233 22 29 43 58 48 63 9 11 66 107 97 164
11 20 30 63 43 96 13 33 30 75 38 93 8 18 14 39 14 48 0 8 9 40 20 71 11 32
20 75 20 98 0 50 17 112 33 122 7 4 37 10 67 14 163 19 437 119 565 208 28 19
76 52 107 74 102 70 322 314 378 418 94 176 170 371 170 434 0 11 6 38 14 60
30 88 27 472 -4 595 -18 70 -51 181 -68 225 -40 110 -141 294 -204 371 -47 59
-204 215 -259 260 -217 173 -404 253 -739 314 -94 17 -342 11 -460 -12z m440
-318 c76 -12 179 -38 217 -55 17 -8 34 -15 37 -15 16 0 165 -76 210 -107 123
-86 252 -206 304 -285 9 -14 30 -45 46 -69 40 -59 123 -227 131 -264 4 -17 13
-47 21 -68 18 -47 18 -111 1 -126 -21 -17 -2278 -16 -2289 1 -14 23 -8 85 12
129 11 24 20 54 20 66 0 12 6 34 14 50 80 160 85 169 131 238 40 60 176 212
204 229 9 5 21 15 26 21 39 45 210 145 325 190 183 72 392 95 590 65z m-340
-1329 c15 -30 14 -983 -2 -999 -9 -9 -132 -12 -494 -12 -444 0 -483 1 -503 18
-21 17 -21 21 -21 501 -1 352 2 487 11 497 9 12 95 14 505 14 477 0 494 -1
504 -19z m1304 13 c21 -8 21 -82 1 -131 -8 -19 -15 -43 -15 -52 -1 -9 -9 -34
-20 -56 -11 -22 -19 -48 -20 -57 0 -9 -4 -19 -9 -22 -5 -4 -19 -27 -32 -54
-73 -153 -251 -348 -410 -452 -52 -33 -99 -60 -105 -60 -6 0 -17 -6 -23 -14
-7 -8 -27 -18 -44 -22 -18 -3 -38 -11 -46 -18 -18 -15 -91 -35 -171 -47 -57
-9 -66 -8 -77 8 -11 14 -13 112 -11 491 3 407 5 474 18 482 16 11 938 14 964
4z m-2634 -33 c13 -25 14 -950 0 -971 -8 -13 -73 -15 -467 -18 -252 -2 -472 0
-490 3 -17 3 -34 12 -37 21 -12 33 50 246 95 324 5 8 20 38 35 66 68 133 233
311 384 413 50 33 96 61 102 61 6 0 19 6 27 13 22 19 197 85 251 96 71 14 89
12 100 -8z m1293 -1300 c9 -1 22 -12 29 -26 9 -19 8 -29 -6 -49 -9 -14 -16
-35 -16 -47 0 -33 -44 -154 -82 -229 -120 -233 -332 -443 -548 -543 -166 -76
-280 -104 -455 -113 -220 -11 -407 32 -604 137 -217 116 -401 306 -503 519
-62 128 -86 205 -90 276 -3 64 -2 68 20 73 17 5 2155 6 2255 2z"/>
</g>
</svg>
